<svg xmlns="http://www.w3.org/2000/svg" width="123.039" height="123.789" viewBox="0 0 123.039 123.789">
  <g id="Hand_marker" data-name="Hand marker" transform="translate(-436.008 669.151) rotate(-41)">
    <path id="Path_10755" data-name="Path 10755" d="M750.381-156.4c.44.122.881.236,1.453.387a3.13,3.13,0,0,0,.115-.7c-.012-.143-.119-.362-.23-.4a2.268,2.268,0,0,0-1.466-.047.394.394,0,0,0-.188.284.611.611,0,0,0,.111.342A.37.37,0,0,0,750.381-156.4Z" transform="translate(3.587 4.037)" fill="#fff"/>
    <path id="Path_10756" data-name="Path 10756" d="M749.056-158.852a12.9,12.9,0,0,1-2.26-.694,1.922,1.922,0,0,0-.462.006,1.655,1.655,0,0,0,1.174,1.325,2,2,0,0,0,1.693.092,1.1,1.1,0,0,0,.1-.07.332.332,0,0,0,.041-.444C749.256-158.719,749.16-158.839,749.056-158.852Z" transform="translate(2.845 3.578)" fill="#fff"/>
    <path id="Path_10757" data-name="Path 10757" d="M754.328-154.491a.382.382,0,0,0-.13-.3c-.242-.183-.523-.127-.584.12a.985.985,0,0,0,.053.386C753.929-154.148,754.3-154.285,754.328-154.491Z" transform="translate(4.292 4.506)" fill="#fff"/>
    <path id="Path_10758" data-name="Path 10758" d="M747.3-160.378c-.064-.143-.077-.258-.134-.288-.669-.345-1.339-.691-2.024-1a.457.457,0,0,0-.424.127.532.532,0,0,0,.047.456,2.092,2.092,0,0,0,2.04.987C746.971-160.105,747.135-160.282,747.3-160.378Z" transform="translate(2.515 3.156)" fill="#fff"/>
    <path id="Path_10759" data-name="Path 10759" d="M753.3-154.756a.236.236,0,0,0,.055-.216,3.553,3.553,0,0,0-.26-.42,2.028,2.028,0,0,0-.48-.089.4.4,0,0,0-.285.181.408.408,0,0,0,0,.343A.711.711,0,0,0,753.3-154.756Z" transform="translate(4.03 4.39)" fill="#fff"/>
    <path id="Path_10760" data-name="Path 10760" d="M810.409-173.816a3.944,3.944,0,0,0-2.891-.67,9.512,9.512,0,0,0-4.079,1.646,14.64,14.64,0,0,0-3.853,3.987,16.63,16.63,0,0,1-1.755,2.321,17.956,17.956,0,0,0-4.18,6.871,4.271,4.271,0,0,1-.963,1.609,7.622,7.622,0,0,0-1.112,1.375,30.488,30.488,0,0,0-2.811,6.223c-.058.193-.092.417-.411.4-.855-1.182-1.773-2.345-2.572-3.588a11.682,11.682,0,0,0-2.76-2.936,6.2,6.2,0,0,0-3.39-1.283,15.343,15.343,0,0,0-1.773-.024c-.844.031-1.688.1-2.531.157a60.336,60.336,0,0,0-8.058.932,8.26,8.26,0,0,1-3.138.078,9.687,9.687,0,0,0-4.259-.006,2.96,2.96,0,0,1-.239-.342,12.247,12.247,0,0,0-4.356-5,21.412,21.412,0,0,1-2.406-1.859c-.887-.779-1.721-1.624-2.553-2.463a16.661,16.661,0,0,0-3.883-2.82,10.478,10.478,0,0,1-2.546-1.868,11.985,11.985,0,0,0-1.356-1.14,5.121,5.121,0,0,0-2.33-.946,2.991,2.991,0,0,0-3.282,1.384,4.364,4.364,0,0,0-.7,1.614,4.973,4.973,0,0,1-.723,1.875,3,3,0,0,0-.251,2.678,6.385,6.385,0,0,0,1.56,2.582,6.58,6.58,0,0,1,1.66,2.336,1.357,1.357,0,0,0,.2.32,1.191,1.191,0,0,0,1.655.446c.222-.1.384-.355.622-.26.735.658,1.436,1.264,2.11,1.9a2.114,2.114,0,0,1,.833,1.863,1.985,1.985,0,0,0,1.715,2.3,7.528,7.528,0,0,0,1.5.215,3.857,3.857,0,0,1,2.754,1.372c.475.537.914,1.107,1.353,1.675a4.9,4.9,0,0,1,.355.626,2.78,2.78,0,0,1-.317.307,3.52,3.52,0,0,0-1.5,2.8,5.318,5.318,0,0,0,1.7,4.468,28.572,28.572,0,0,1,4.114,5.289c.384.6.707,1.247,1.059,1.872a2.163,2.163,0,0,1,.259,1.343,17.422,17.422,0,0,0,.15,4.8,36.255,36.255,0,0,0,.958,4.716,22.19,22.19,0,0,0,3.242,6.567c.444.618.889,1.237,1.281,1.887a11.871,11.871,0,0,1,1.893,4.254,4.986,4.986,0,0,0,.5,1.288c.252.535.553,1.047.806,1.582a1.482,1.482,0,0,1,.189.71,8.311,8.311,0,0,1-.282,1.612,14.742,14.742,0,0,0,.036,8.865,10.488,10.488,0,0,0,3.615,5.243,10.735,10.735,0,0,0,6.873,2.188,14.769,14.769,0,0,0,5.885-1.386c.308-.135.61-.29.928-.4.193-.066.436-.011.611-.1a3.1,3.1,0,0,0,.56-.477,7.211,7.211,0,0,0,.709.588,1.666,1.666,0,0,0,2.3-.252,2.228,2.228,0,0,0,.5-.719,10.732,10.732,0,0,0,.6-1.794,12.885,12.885,0,0,0-.123-5.661,13.767,13.767,0,0,0-.728-2.156,3.125,3.125,0,0,0-2.481-2.109c-.031,0-.056-.052-.137-.13a5.407,5.407,0,0,1,.368-1.542q1.434-4.464,2.874-8.926a64.927,64.927,0,0,1,4.553-10.441,62.168,62.168,0,0,0,3.606-7.678,16.947,16.947,0,0,0,1.243-5.793c.01-1.39.18-2.782.326-4.168a35.145,35.145,0,0,1,1.7-6.619,15.691,15.691,0,0,1,.621-1.795,36.206,36.206,0,0,1,3.019-5.564c.426-.628.8-1.294,1.207-1.934,1.073-1.677,1.853-3.512,2.825-5.241a11.192,11.192,0,0,1,1.175-1.641c.649-.778,1.374-1.494,2.012-2.281a5.334,5.334,0,0,0,1.177-2.5A2.465,2.465,0,0,0,810.409-173.816Zm-45.534,18.348a2.514,2.514,0,0,1-.028,1.314c-1.775.661-2.966.128-3.5-1.652A16.35,16.35,0,0,1,764.875-155.468Zm-15.287,1.438a4.277,4.277,0,0,0-2.337-.879,6.342,6.342,0,0,1-1.487-.277,1.091,1.091,0,0,1-.868-1.234,4.78,4.78,0,0,1,.046-.5,1.556,1.556,0,0,0-.345-1.186,13.648,13.648,0,0,0-1.095-1.225,6.559,6.559,0,0,1-1.793-2.1.59.59,0,0,0-.769-.27,5.471,5.471,0,0,0-.664.359c-.176.1-.351.2-.5.29a1.438,1.438,0,0,1-.656-.968,2.875,2.875,0,0,0-.839-1.24,12.38,12.38,0,0,1-1.18-1.317,6.2,6.2,0,0,1-.651-1.225,1.908,1.908,0,0,1,.106-1.928,5.217,5.217,0,0,0,.789-2.121,3.106,3.106,0,0,1,.59-1.387,1.82,1.82,0,0,1,1.752-.806A4.687,4.687,0,0,1,742.226-171c.1.079.176.182.269.27a15.046,15.046,0,0,0,3.417,2.59,22.21,22.21,0,0,1,5.445,4.308,17.7,17.7,0,0,0,3.134,2.558,11.641,11.641,0,0,1,4.49,5.3,3.483,3.483,0,0,0,.018,3.33c.658,1.416,1.524,2.712,2.236,4.065-.131.447-.483.61-.8.812a1.214,1.214,0,0,1-1.207.095c-.27-.121-.543-.239-.8-.384a17.272,17.272,0,0,0-4.408-1.887,2.055,2.055,0,0,1-1.028-.71c-.339-.376-.679-.755-.987-1.157A11.756,11.756,0,0,0,749.588-154.03Zm11.8,8.211c-.146-.234-.265-.408-.367-.592a1.189,1.189,0,0,1-.06-.283,12.62,12.62,0,0,1,2.777-1.909c.463.038.923.092,1.386.113a5.417,5.417,0,0,1,1.259.044A14.271,14.271,0,0,1,761.386-145.819Zm1.182,3.157a4.032,4.032,0,0,1-1.8.838,1.147,1.147,0,0,1-1.432-.711,7.8,7.8,0,0,1-.295-.741,9.322,9.322,0,0,1,3.915-1.624c.061.194.116.395.188.588A1.373,1.373,0,0,1,762.568-142.662Zm3.074,30.457a16.461,16.461,0,0,0-2.339-5.031c-.295-.464-.613-.912-.935-1.356a21.7,21.7,0,0,1-3.13-6.2,29.557,29.557,0,0,1-.9-4.082,19.38,19.38,0,0,1-.249-5.053c.041-.421.054-.844.078-1.265a1.123,1.123,0,0,0-.384-1.018,3.042,3.042,0,0,1-.52-.7c-.761-1.167-1.507-2.344-2.276-3.506a24.778,24.778,0,0,0-2.7-3.187,6.333,6.333,0,0,1-.952-1.327,3.557,3.557,0,0,1,.028-3.2,2.393,2.393,0,0,1,1.79-.359c.586.073,1.176.127,1.754.24a7.4,7.4,0,0,1,1.327.392c1.095.442,2.054,1.168,3.188,1.542.336.112.444.343.7.98-.676.418-1.363.823-2.028,1.26a3.441,3.441,0,0,0-1.489,3.535,3.11,3.11,0,0,0,1.807,2.444,6.718,6.718,0,0,0,5.4.409,4.479,4.479,0,0,1,.512-.108c.129.2.248.365.36.538a4.248,4.248,0,0,0,3.037,1.872,8.64,8.64,0,0,0,3.772-.157c.772-.207,1.536-.44,2.327-.668.291.333.562.646.854.981-.445.829-.882,1.638-1.315,2.451-.139.26-.266.528-.4.794a4.867,4.867,0,0,0-.349,3.627c-.416.181-.8.336-1.168.513s-.755.38-1.124.585c-.332.185-.656.386-.98.585-.361.221-.724.436-1.074.671a7.352,7.352,0,0,0-2,1.735,1.366,1.366,0,0,0-.291.549.8.8,0,0,0,.175.556.484.484,0,0,0,.458.079,5.136,5.136,0,0,0,.825-.571c.658-.529,1.3-1.074,1.962-1.6.2-.157.43-.266.642-.405a.808.808,0,0,1,.848,0c.2.1.326.348.526.578-.388.591-.74,1.161-1.127,1.706a22.616,22.616,0,0,1-1.891,2.54,8.075,8.075,0,0,0-1.5,2.886,6.983,6.983,0,0,0-.44,2.989,1.964,1.964,0,0,0,.24.969,2.024,2.024,0,0,1,.317,1.314,12.522,12.522,0,0,0,.564,4.023A8.871,8.871,0,0,1,765.642-112.2Zm.674-26.15a3.554,3.554,0,0,0,4.633-1.891,1.5,1.5,0,0,0,.02-.856,7.58,7.58,0,0,0-.4-.927c-.089-.229-.139-.472-.216-.743.343-.339.607-.555.817-.815a4.288,4.288,0,0,1,1.53-1.092c.525-.264,1.02-.586,1.543-.855,1.125-.578,2.241-1.177,3.4-1.691a5.442,5.442,0,0,1,2.61-.367,3.426,3.426,0,0,1,2.875,1.8c.592,1.022,1.148,2.065,1.693,3.05a1.783,1.783,0,0,1-.95,1.691,9.294,9.294,0,0,1-4.365,1.9,1.99,1.99,0,0,1-.374-.016,4.942,4.942,0,0,1,.53-1.64c.054-.079-.046-.342-.151-.428a.8.8,0,0,0-.464-.078.4.4,0,0,0-.219.114c-.809.674-1.625,1.341-2.42,2.03a11.987,11.987,0,0,1-6.32,2.687,6.3,6.3,0,0,1-2.392-.112,3.221,3.221,0,0,1-2.315-1.794.9.9,0,0,1-.067-.243c-.006-.037.019-.08.05-.2C765.687-138.67,766.01-138.527,766.316-138.355Zm-.415-2.154a21.48,21.48,0,0,1,3.329-1.608c.167.317.288.576.434.819a.953.953,0,0,1-.174,1.255,2.178,2.178,0,0,1-3.236.153A3.255,3.255,0,0,1,765.9-140.508Zm21.594,4.055a5.352,5.352,0,0,1-2.718,2.349,7.353,7.353,0,0,1-2.059.566,9.236,9.236,0,0,1-3.877-.258c-.08-.024-.165-.035-.246-.06a2.557,2.557,0,0,1-1.848-1.576,2.466,2.466,0,0,1,.622-2.413,12.843,12.843,0,0,0,4.175-.618,12.324,12.324,0,0,0,3.649-2.092,8.241,8.241,0,0,1,.561.713A18.8,18.8,0,0,1,787.5-136.453Zm-1.7-5.118a.331.331,0,0,1,.493-.252,3.6,3.6,0,0,1,1.229,1.058,5.13,5.13,0,0,1,1.362,2.377,2.691,2.691,0,0,1-.121,1.887,8.349,8.349,0,0,1-.674-1.359c-.234-.446-.448-.9-.69-1.344-.221-.405-.446-.812-.705-1.192C786.41-140.808,786.087-141.191,785.8-141.571Zm-18.971,41.225c-.006.447-.014.9-.02,1.342-.3.018-.27-.205-.3-.342a12.549,12.549,0,0,1-.246-4.253c.471.766.819,1.33,1.2,1.954A2.067,2.067,0,0,0,766.825-100.346Zm3.02,6.426a1.963,1.963,0,0,1-1.181-1.139,13.194,13.194,0,0,1-.775-4.944,3.477,3.477,0,0,1,.168-.649,15.512,15.512,0,0,1,2.072,1.487C769.143-97.433,769.744-95.71,769.845-93.92Zm1.64,1.207a.854.854,0,0,1-.321-.516,16.857,16.857,0,0,1-.549-4,1.859,1.859,0,0,1,.46-1.325l2.166.754a1.739,1.739,0,0,1,.553,1.347c.063,1.474.122,2.948.186,4.506A5.448,5.448,0,0,1,771.485-92.713Zm3.552.956c-.237-1.88-.092-3.759-.283-5.693l3.314-.141a2,2,0,0,1,.453,1.4c.076,1.379.089,2.76.126,4.157A9.784,9.784,0,0,1,775.037-91.757Zm4.728-.577a5.942,5.942,0,0,1-.131-.739c-.022-.46-.032-.924-.012-1.385a9.51,9.51,0,0,0-.32-3.242c-.022-.071.019-.161.04-.3l1.815-.922a1.061,1.061,0,0,1,.918.818A8.541,8.541,0,0,1,782.313-97a33.485,33.485,0,0,1,.42,3.4A12.962,12.962,0,0,1,779.765-92.334Zm5.375-9.518c.073-.5.18-.984.294-1.592.248.162.454.231.555.374a4.9,4.9,0,0,1,.549.989,11.99,11.99,0,0,1,.531,7.428,3.245,3.245,0,0,1-.174.415,1.055,1.055,0,0,1-.934-.67,5.28,5.28,0,0,1-.438-1.179A16.748,16.748,0,0,1,785.14-101.852Zm1.095,8.485c-.1.409-.374.435-.59.295a3.465,3.465,0,0,1-.828-.753,3.637,3.637,0,0,1-.461-.9,12.31,12.31,0,0,1-.771-6.1,1.131,1.131,0,0,1,.571-1.048c-.011.165-.014.285-.028.4a18.646,18.646,0,0,0,.366,4.916A4.347,4.347,0,0,0,786.235-93.367Zm24.026-78.1a4.034,4.034,0,0,1-.945,2.046q-1.022,1.21-2.1,2.371a6.708,6.708,0,0,0-1.1,1.537c-.789,1.543-1.6,3.076-2.435,4.591-.47.849-1,1.664-1.532,2.48a36.6,36.6,0,0,0-3.395,6.366c-.279.705-.486,1.439-.716,2.163-.1.321-.161.658-.273.976a27.758,27.758,0,0,0-1.562,9.21,17.308,17.308,0,0,1-1.349,6.15,59.232,59.232,0,0,1-3.2,6.752A74.3,74.3,0,0,0,786.236-114c-.745,2.379-1.517,4.749-2.249,7.132a12.034,12.034,0,0,0-.464,2.1,6.3,6.3,0,0,1-3.356,4.927,8.492,8.492,0,0,1-7.234.6,8.454,8.454,0,0,1-5.722-5.812,6.021,6.021,0,0,1-.211-2.383.669.669,0,0,1,.686-.693c.169.387.345.8.535,1.215a9.606,9.606,0,0,0,.45.9.463.463,0,0,0,.637.231.542.542,0,0,0,.209-.667c-.065-.245-.155-.483-.232-.725-.229-.724-.469-1.446-.685-2.175a11.4,11.4,0,0,1-.3-4.65,26.359,26.359,0,0,1,1.105-4.943,17.107,17.107,0,0,1,1.982-3.954,9.231,9.231,0,0,1,2.143-2.537c.183.307.336.6.523.862a.474.474,0,0,0,.564.174.448.448,0,0,0,.332-.478,3.233,3.233,0,0,0-.1-.622,11.756,11.756,0,0,1,.285-6.621,6.505,6.505,0,0,1,.778-1.915,9.218,9.218,0,0,0,2.883,1.543,15.78,15.78,0,0,0,3.276.272,7.872,7.872,0,0,0,3.2-.724,8.978,8.978,0,0,0,2.621-1.905,5.235,5.235,0,0,0,1.263-.143,3.841,3.841,0,0,0,.891-.676,5.544,5.544,0,0,1,1.227,2.113,3.719,3.719,0,0,0,.287.7.463.463,0,0,0,.549.2.484.484,0,0,0,.375-.452,2.627,2.627,0,0,0-.279-1.476c-.206-.415-.463-.806-.683-1.215-.241-.445-.492-.889-.69-1.353a4.253,4.253,0,0,0-.573-1.118,2.844,2.844,0,0,1-.333-.808,6.8,6.8,0,0,0-3.507-3.981,2.7,2.7,0,0,1-.962-.968,7.5,7.5,0,0,1-.56-.993c-.181-.335-.359-.671-.536-1.007-1.014-1.928-2.33-3.024-5.332-2.763a6.3,6.3,0,0,0-1.725.391,19.121,19.121,0,0,0-3.843,1.929,8.157,8.157,0,0,1-1.215.673,6.42,6.42,0,0,0-2.079,1.422,7.5,7.5,0,0,1-1.949,1.393c-.11.061-.231.1-.344.161a13.293,13.293,0,0,0-3.543,2.173,18.4,18.4,0,0,1-1.942,1.413,9.837,9.837,0,0,0-.8.767,5.111,5.111,0,0,1-2.3-.484,3.336,3.336,0,0,1-1.212-.9,1.7,1.7,0,0,1-.406-1.171,1.44,1.44,0,0,1,.309-1.145c.4.1.422.444.57.674a1.868,1.868,0,0,0,1.71.908,4.908,4.908,0,0,0,3.591-1.642,2.1,2.1,0,0,0,.508-2.121c-.109-.359-.165-.734-.258-1.162.228-.146.43-.284.64-.409.872-.518,1.736-1.05,2.622-1.543a6.134,6.134,0,0,1,1.494-.674,35.563,35.563,0,0,0,6.17-2.289c.619-.275,1.229-.566,1.85-.832a11.721,11.721,0,0,1,1.3-.5,5.054,5.054,0,0,1,5.535,1.517,22.209,22.209,0,0,1,2.528,3.483c.92,1.517,1.8,3.066,2.849,4.494.9,1.235,1.6,2.578,2.405,3.865a13.027,13.027,0,0,1,.6,1.257,6.828,6.828,0,0,0,.352.67.432.432,0,0,0,.552.185.8.8,0,0,0,.394-.436.959.959,0,0,0-.065-.612,13.986,13.986,0,0,0-.881-1.819c-.988-1.573-2.034-3.11-3.038-4.674-.64-1-1.275-2-1.861-3.023a28.961,28.961,0,0,0-2.583-3.755,6.421,6.421,0,0,0-7.606-2.13c-.945.367-1.859.812-2.794,1.2-1.287.538-2.576,1.071-3.873,1.583a3.055,3.055,0,0,1-.976.221c-1.393.056-2.789.059-4.182.119a5.332,5.332,0,0,1-2.466-.46,2.289,2.289,0,0,1-.662-.366,11.845,11.845,0,0,1-2.507-2.825,2.286,2.286,0,0,1-.257-1.47,3.437,3.437,0,0,1,.366-.77c.212.45.348.787.524,1.1a3.658,3.658,0,0,0,4.633,1.457,1.441,1.441,0,0,0,.9-1.277c.021-.335.024-.669.035-.975.3-.365.713-.329,1.067-.428a6.632,6.632,0,0,1,1.115-.241q3.344-.349,6.691-.664c.968-.09,1.939-.147,2.91-.192a7.1,7.1,0,0,1,3.59.565,8.588,8.588,0,0,1,3.061,2.779c.573.784,1.091,1.607,1.668,2.389a70.237,70.237,0,0,1,4.624,7.419c.619,1.107,1.236,2.215,1.87,3.312a7.246,7.246,0,0,0,.656.928c.134.165.351.3.544.12a.513.513,0,0,0,.109-.444,9.118,9.118,0,0,0-.524-1.289c-.775-1.5-1.571-2.994-2.356-4.492-.156-.3-.3-.6-.445-.881.108-.224.2-.41.284-.591a.931.931,0,0,0-.028-.252c-.222-.548-.471-1.085-.675-1.639a3.219,3.219,0,0,1-.028-2.353,32.7,32.7,0,0,1,2.253-4.676,9.167,9.167,0,0,1,1.308-1.705,3.533,3.533,0,0,0,.838-1.39A16.465,16.465,0,0,1,797-163.652c.6-.815,1.237-1.61,1.916-2.36a15.531,15.531,0,0,0,1.523-2.022,14,14,0,0,1,2.841-3.221,8.75,8.75,0,0,1,4.3-2.032,3.088,3.088,0,0,1,1.849.275A1.349,1.349,0,0,1,810.26-171.464Z" transform="translate(0.598 0.597)" fill="#fff"/>
    <path id="Path_10761" data-name="Path 10761" d="M760.82-152.8c-.463-.02-.923-.074-1.386-.113A12.62,12.62,0,0,0,756.657-151a1.191,1.191,0,0,0,.06.283c.1.185.221.359.367.592a14.271,14.271,0,0,0,5-2.627A5.415,5.415,0,0,0,760.82-152.8Z" transform="translate(4.899 4.902)" fill="#ff62cd"/>
    <path id="Path_10762" data-name="Path 10762" d="M813.016-176.2a7.52,7.52,0,0,0-4.269-1.333,7.722,7.722,0,0,0-1.168.089,13.128,13.128,0,0,0-5.6,2.254,18.264,18.264,0,0,0-4.79,4.951,13.9,13.9,0,0,1-1.363,1.827,21.649,21.649,0,0,0-4.994,8.235.67.67,0,0,1-.183.282l-.125.134a9.788,9.788,0,0,0-1.487,1.931c-.24.43-.487.879-.735,1.344a16.154,16.154,0,0,0-2.477-2.343,9.762,9.762,0,0,0-5.319-2.024c-.441-.034-.886-.048-1.331-.048-.283,0-.565.006-.848.016-.752.029-1.5.082-2.253.137l-.406.029a62.954,62.954,0,0,0-8.526,1,5.2,5.2,0,0,1-1.062.116,4.267,4.267,0,0,1-.737-.064,17.821,17.821,0,0,0-2.962-.295,15.62,15.62,0,0,0-4.529-4.518,18.138,18.138,0,0,1-2-1.552c-.765-.673-1.5-1.42-2.372-2.293a19.979,19.979,0,0,0-4.705-3.441,6.956,6.956,0,0,1-1.692-1.216,14.7,14.7,0,0,0-1.763-1.5,8.677,8.677,0,0,0-3.935-1.638,8.179,8.179,0,0,0-1.283-.106,6.449,6.449,0,0,0-5.613,3.118,7.8,7.8,0,0,0-1.217,2.964,1.334,1.334,0,0,1-.213.531,6.534,6.534,0,0,0-.621,5.731,9.936,9.936,0,0,0,2.458,4.014,3.311,3.311,0,0,1,.817,1.055,4.664,4.664,0,0,0,.688,1.2,4.716,4.716,0,0,0,3.865,2.042c.125,0,.248,0,.373-.016l.247.227a5.513,5.513,0,0,0,4.4,5.3,10.886,10.886,0,0,0,2.223.33c.019,0,.037,0,.052,0a8.015,8.015,0,0,0-.782,2.855,8.86,8.86,0,0,0,2.775,7.38,25.4,25.4,0,0,1,3.583,4.639c.221.348.417.712.614,1.076l.122.223a21.342,21.342,0,0,0,.217,5.363l.059.362a36.142,36.142,0,0,0,1.008,4.821,25.808,25.808,0,0,0,3.764,7.626c.393.546.8,1.112,1.123,1.648l.113.188a8.537,8.537,0,0,1,1.3,2.766,7.14,7.14,0,0,0,.718,2.079l.086.18c.15.319.314.632.478.944.031.06.062.12.095.18-.016.078-.034.152-.053.219a18.34,18.34,0,0,0,.054,10.983,14.041,14.041,0,0,0,4.843,7,14.277,14.277,0,0,0,8.957,2.94h.145a18.216,18.216,0,0,0,7.3-1.691l.355-.161a5.265,5.265,0,0,0,2.052.423,5.29,5.29,0,0,0,3.789-1.644,5.713,5.713,0,0,0,1.3-1.923,13.906,13.906,0,0,0,.789-2.4,16.446,16.446,0,0,0-.144-7.226,17.187,17.187,0,0,0-.915-2.731,7.488,7.488,0,0,0-1.728-2.558l.067-.206q1.192-3.718,2.395-7.431a61.4,61.4,0,0,1,4.306-9.861,65.207,65.207,0,0,0,3.806-8.125,20.656,20.656,0,0,0,1.465-7.012c.007-1.035.125-2.13.249-3.288l.056-.526a25.179,25.179,0,0,1,1.2-4.8l.421-1.339a10.861,10.861,0,0,1,.407-1.183,32.126,32.126,0,0,1,2.711-5.012c.287-.422.552-.857.815-1.294.146-.241.293-.483.445-.722a38.443,38.443,0,0,0,1.9-3.456c.332-.658.665-1.317,1.026-1.962a8.221,8.221,0,0,1,.8-1.1c.27-.323.554-.632.838-.942.41-.451.82-.9,1.205-1.375a8.877,8.877,0,0,0,1.935-4.188A6.039,6.039,0,0,0,813.016-176.2Zm-.936,5.633a5.333,5.333,0,0,1-1.177,2.5c-.638.787-1.363,1.5-2.012,2.281a11.191,11.191,0,0,0-1.175,1.642c-.972,1.729-1.752,3.564-2.825,5.241-.41.64-.782,1.306-1.207,1.934a36.206,36.206,0,0,0-3.019,5.564,15.691,15.691,0,0,0-.621,1.8,35.145,35.145,0,0,0-1.7,6.619c-.146,1.386-.316,2.778-.326,4.168a16.946,16.946,0,0,1-1.243,5.793,62.166,62.166,0,0,1-3.606,7.678,64.928,64.928,0,0,0-4.553,10.441q-1.446,4.461-2.874,8.926a5.407,5.407,0,0,0-.368,1.542c.08.078.106.125.137.13a3.125,3.125,0,0,1,2.481,2.109,13.767,13.767,0,0,1,.728,2.156,12.886,12.886,0,0,1,.123,5.661,10.732,10.732,0,0,1-.6,1.794,2.228,2.228,0,0,1-.5.719,1.666,1.666,0,0,1-2.3.252,7.211,7.211,0,0,1-.709-.588,3.1,3.1,0,0,1-.56.477c-.175.089-.418.034-.611.1-.318.109-.62.264-.928.4a14.769,14.769,0,0,1-5.885,1.386,10.735,10.735,0,0,1-6.873-2.188,10.489,10.489,0,0,1-3.615-5.243,14.742,14.742,0,0,1-.036-8.865,8.311,8.311,0,0,0,.282-1.612,1.483,1.483,0,0,0-.189-.71c-.253-.535-.554-1.047-.806-1.582a4.985,4.985,0,0,1-.5-1.288,11.872,11.872,0,0,0-1.893-4.254c-.392-.65-.837-1.27-1.281-1.887a22.187,22.187,0,0,1-3.242-6.567,36.255,36.255,0,0,1-.958-4.716,17.422,17.422,0,0,1-.15-4.8,2.163,2.163,0,0,0-.259-1.343c-.351-.625-.675-1.267-1.059-1.872a28.572,28.572,0,0,0-4.114-5.289,5.318,5.318,0,0,1-1.7-4.468,3.52,3.52,0,0,1,1.5-2.8,2.781,2.781,0,0,0,.317-.307,4.905,4.905,0,0,0-.355-.626c-.439-.568-.878-1.138-1.353-1.675a3.857,3.857,0,0,0-2.754-1.372,7.527,7.527,0,0,1-1.5-.215,1.985,1.985,0,0,1-1.715-2.3,2.114,2.114,0,0,0-.833-1.863c-.674-.635-1.375-1.241-2.11-1.9-.239-.095-.4.164-.622.26a1.191,1.191,0,0,1-1.655-.446,1.355,1.355,0,0,1-.2-.32,6.581,6.581,0,0,0-1.66-2.336,6.384,6.384,0,0,1-1.56-2.582,3,3,0,0,1,.251-2.677,4.973,4.973,0,0,0,.723-1.875,4.364,4.364,0,0,1,.7-1.614,2.991,2.991,0,0,1,3.282-1.384,5.121,5.121,0,0,1,2.33.946,11.991,11.991,0,0,1,1.356,1.14,10.478,10.478,0,0,0,2.546,1.868,16.661,16.661,0,0,1,3.883,2.82c.832.839,1.665,1.684,2.553,2.463a21.411,21.411,0,0,0,2.406,1.859,12.247,12.247,0,0,1,4.356,5,2.96,2.96,0,0,0,.239.342,9.687,9.687,0,0,1,4.259.006,8.26,8.26,0,0,0,3.138-.078,60.332,60.332,0,0,1,8.058-.932c.843-.06,1.687-.126,2.531-.157a15.349,15.349,0,0,1,1.773.024,6.2,6.2,0,0,1,3.39,1.283,11.68,11.68,0,0,1,2.76,2.937c.8,1.242,1.717,2.405,2.572,3.588.319.02.354-.2.411-.4a30.488,30.488,0,0,1,2.811-6.223,7.623,7.623,0,0,1,1.112-1.375,4.272,4.272,0,0,0,.963-1.609,17.956,17.956,0,0,1,4.18-6.871,16.631,16.631,0,0,0,1.755-2.321,14.64,14.64,0,0,1,3.853-3.987,9.513,9.513,0,0,1,4.079-1.646,3.944,3.944,0,0,1,2.891.67A2.465,2.465,0,0,1,812.08-170.567Z" transform="translate(0)" fill="#ff62cd"/>
    <path id="Path_10763" data-name="Path 10763" d="M805.682-173.213a3.088,3.088,0,0,0-1.849-.275,8.749,8.749,0,0,0-4.3,2.032,14,14,0,0,0-2.841,3.221,15.53,15.53,0,0,1-1.523,2.022c-.679.749-1.314,1.544-1.916,2.36a16.466,16.466,0,0,0-2.382,4.736,3.534,3.534,0,0,1-.838,1.39,9.164,9.164,0,0,0-1.308,1.705,32.692,32.692,0,0,0-2.253,4.676,3.219,3.219,0,0,0,.028,2.353c.2.554.453,1.091.675,1.639a.928.928,0,0,1,.028.252l-.284.591c.144.284.289.585.445.881.785,1.5,1.582,2.989,2.356,4.492a9.117,9.117,0,0,1,.524,1.289.513.513,0,0,1-.109.444c-.193.176-.41.046-.544-.12a7.239,7.239,0,0,1-.656-.928c-.634-1.1-1.252-2.205-1.871-3.312a70.247,70.247,0,0,0-4.624-7.419c-.577-.782-1.095-1.6-1.668-2.389a8.587,8.587,0,0,0-3.061-2.779,7.1,7.1,0,0,0-3.59-.565c-.971.044-1.943.1-2.91.192q-3.347.311-6.691.664a6.634,6.634,0,0,0-1.115.241c-.354.1-.765.064-1.067.428-.011.306-.013.64-.035.975a1.441,1.441,0,0,1-.9,1.277,3.659,3.659,0,0,1-4.633-1.457c-.176-.313-.312-.65-.524-1.1a3.436,3.436,0,0,0-.366.77,2.286,2.286,0,0,0,.257,1.47,11.845,11.845,0,0,0,2.507,2.825,2.29,2.29,0,0,0,.662.366,5.331,5.331,0,0,0,2.466.46c1.393-.06,2.789-.062,4.182-.119a3.055,3.055,0,0,0,.976-.221c1.3-.512,2.586-1.044,3.873-1.583.935-.392,1.849-.837,2.794-1.2a6.421,6.421,0,0,1,7.606,2.13,28.96,28.96,0,0,1,2.583,3.755c.586,1.026,1.221,2.028,1.861,3.023,1,1.564,2.05,3.1,3.038,4.674a13.988,13.988,0,0,1,.881,1.819.96.96,0,0,1,.065.612.8.8,0,0,1-.395.436.432.432,0,0,1-.552-.185,6.853,6.853,0,0,1-.352-.67,13.016,13.016,0,0,0-.6-1.257c-.8-1.287-1.5-2.63-2.405-3.865-1.046-1.428-1.929-2.977-2.849-4.494a22.213,22.213,0,0,0-2.528-3.483,5.054,5.054,0,0,0-5.535-1.517,11.721,11.721,0,0,0-1.3.5c-.621.266-1.231.558-1.85.832a35.562,35.562,0,0,1-6.17,2.289,6.135,6.135,0,0,0-1.494.674c-.886.493-1.751,1.025-2.622,1.543-.21.125-.413.263-.64.409.092.428.149.8.258,1.162a2.1,2.1,0,0,1-.508,2.121,4.908,4.908,0,0,1-3.591,1.642,1.868,1.868,0,0,1-1.71-.908c-.148-.23-.174-.573-.57-.674a1.44,1.44,0,0,0-.309,1.145,1.7,1.7,0,0,0,.406,1.171,3.336,3.336,0,0,0,1.212.9,5.111,5.111,0,0,0,2.3.484,9.844,9.844,0,0,1,.8-.767,18.389,18.389,0,0,0,1.942-1.413,13.3,13.3,0,0,1,3.543-2.173c.113-.056.234-.1.344-.161a7.5,7.5,0,0,0,1.948-1.393A6.42,6.42,0,0,1,768.486-146a8.152,8.152,0,0,0,1.215-.673,19.121,19.121,0,0,1,3.843-1.929,6.3,6.3,0,0,1,1.725-.391c3-.261,4.318.835,5.332,2.763.177.336.355.673.536,1.007a7.5,7.5,0,0,0,.56.993,2.7,2.7,0,0,0,.962.968,6.8,6.8,0,0,1,3.507,3.981,2.844,2.844,0,0,0,.333.808,4.253,4.253,0,0,1,.573,1.118c.2.464.448.908.69,1.353.221.409.477.8.683,1.215a2.626,2.626,0,0,1,.279,1.476.484.484,0,0,1-.375.452.463.463,0,0,1-.549-.2,3.719,3.719,0,0,1-.286-.7,5.544,5.544,0,0,0-1.227-2.113,3.838,3.838,0,0,1-.891.676,5.234,5.234,0,0,1-1.263.143,8.979,8.979,0,0,1-2.621,1.905,7.873,7.873,0,0,1-3.2.724,15.781,15.781,0,0,1-3.276-.272,9.217,9.217,0,0,1-2.883-1.543,6.5,6.5,0,0,0-.778,1.915,11.755,11.755,0,0,0-.285,6.621,3.228,3.228,0,0,1,.1.622.448.448,0,0,1-.332.478.474.474,0,0,1-.564-.174c-.187-.265-.339-.555-.523-.862a9.23,9.23,0,0,0-2.143,2.537,17.1,17.1,0,0,0-1.982,3.954,26.354,26.354,0,0,0-1.106,4.943,11.4,11.4,0,0,0,.3,4.65c.216.729.456,1.451.685,2.175.077.242.167.481.232.725a.542.542,0,0,1-.209.667.462.462,0,0,1-.637-.231,9.6,9.6,0,0,1-.45-.9c-.189-.411-.366-.827-.535-1.215a.669.669,0,0,0-.686.693,6.021,6.021,0,0,0,.211,2.383,8.454,8.454,0,0,0,5.722,5.812,8.492,8.492,0,0,0,7.234-.6,6.3,6.3,0,0,0,3.356-4.927,12.028,12.028,0,0,1,.464-2.1c.733-2.383,1.5-4.753,2.249-7.132a74.3,74.3,0,0,1,5.416-12.825,59.253,59.253,0,0,0,3.2-6.752,17.31,17.31,0,0,0,1.349-6.15,27.758,27.758,0,0,1,1.562-9.21c.113-.318.171-.655.273-.976.23-.724.436-1.458.716-2.163a36.6,36.6,0,0,1,3.395-6.366c.528-.815,1.062-1.631,1.532-2.48.839-1.516,1.646-3.048,2.435-4.591a6.708,6.708,0,0,1,1.1-1.537q1.083-1.156,2.1-2.371a4.035,4.035,0,0,0,.945-2.046A1.349,1.349,0,0,0,805.682-173.213Z" transform="translate(4.351 0.798)" fill="#ff62cd"/>
    <path id="Path_10764" data-name="Path 10764" d="M764.373-117a2.024,2.024,0,0,0-.317-1.314,1.963,1.963,0,0,1-.24-.969,6.983,6.983,0,0,1,.44-2.989,8.075,8.075,0,0,1,1.5-2.886,22.624,22.624,0,0,0,1.891-2.54c.387-.546.739-1.115,1.127-1.706-.2-.23-.326-.476-.526-.578a.808.808,0,0,0-.848,0c-.211.139-.445.248-.641.405-.659.526-1.3,1.072-1.962,1.6a5.14,5.14,0,0,1-.825.571.484.484,0,0,1-.458-.079.8.8,0,0,1-.175-.556,1.367,1.367,0,0,1,.291-.549,7.352,7.352,0,0,1,2-1.735c.35-.235.713-.451,1.074-.671.324-.2.647-.4.98-.585.368-.205.742-.4,1.124-.585s.752-.332,1.168-.513a4.867,4.867,0,0,1,.349-3.627c.13-.266.257-.534.4-.794.433-.813.871-1.622,1.315-2.451-.291-.335-.562-.648-.854-.981-.791.228-1.555.46-2.327.668a8.64,8.64,0,0,1-3.772.157,4.247,4.247,0,0,1-3.037-1.872c-.112-.174-.23-.343-.36-.538a4.477,4.477,0,0,0-.512.108,6.718,6.718,0,0,1-5.4-.409,3.109,3.109,0,0,1-1.807-2.444,3.441,3.441,0,0,1,1.489-3.535c.664-.438,1.351-.842,2.028-1.26-.254-.637-.362-.868-.7-.98-1.134-.374-2.094-1.1-3.188-1.542a7.4,7.4,0,0,0-1.327-.392c-.578-.113-1.168-.167-1.754-.24a2.393,2.393,0,0,0-1.79.359,3.557,3.557,0,0,0-.028,3.2,6.332,6.332,0,0,0,.952,1.327,24.774,24.774,0,0,1,2.7,3.187c.769,1.162,1.514,2.339,2.276,3.506a3.044,3.044,0,0,0,.52.7,1.123,1.123,0,0,1,.384,1.018c-.024.421-.037.844-.078,1.265a19.38,19.38,0,0,0,.249,5.053,29.557,29.557,0,0,0,.9,4.082,21.7,21.7,0,0,0,3.13,6.2c.323.444.64.892.935,1.356A16.462,16.462,0,0,1,763-116.523a8.871,8.871,0,0,0,1.938,3.548A12.522,12.522,0,0,1,764.373-117Z" transform="translate(3.241 4.915)" fill="#ff62cd"/>
    <path id="Path_10765" data-name="Path 10765" d="M752.794-151.069a2.055,2.055,0,0,0,1.028.71,17.275,17.275,0,0,1,4.408,1.887c.258.145.531.263.8.384a1.214,1.214,0,0,0,1.207-.095c.317-.2.669-.365.8-.812-.712-1.353-1.578-2.649-2.236-4.065a3.483,3.483,0,0,1-.018-3.33,11.641,11.641,0,0,0-4.49-5.3,17.7,17.7,0,0,1-3.134-2.558,22.212,22.212,0,0,0-5.445-4.308,15.046,15.046,0,0,1-3.417-2.59c-.092-.088-.17-.191-.269-.27a4.687,4.687,0,0,0-2.541-1.042,1.82,1.82,0,0,0-1.752.806,3.106,3.106,0,0,0-.59,1.387,5.216,5.216,0,0,1-.789,2.121,1.908,1.908,0,0,0-.106,1.928,6.2,6.2,0,0,0,.651,1.225,12.372,12.372,0,0,0,1.18,1.317,2.875,2.875,0,0,1,.839,1.24,1.438,1.438,0,0,0,.656.968c.15-.088.325-.191.5-.29a5.471,5.471,0,0,1,.664-.359.59.59,0,0,1,.769.27,6.558,6.558,0,0,0,1.793,2.1,13.655,13.655,0,0,1,1.095,1.225,1.556,1.556,0,0,1,.345,1.186,4.779,4.779,0,0,0-.046.5,1.091,1.091,0,0,0,.868,1.234,6.342,6.342,0,0,0,1.487.277,4.277,4.277,0,0,1,2.337.879,11.758,11.758,0,0,1,2.417,2.216C752.116-151.824,752.455-151.445,752.794-151.069Zm4.9-.221a.382.382,0,0,1,.13.3c-.029.206-.4.343-.661.21a.986.986,0,0,1-.053-.386C757.172-151.416,757.453-151.473,757.695-151.289Zm-2.134-.628a.4.4,0,0,1,.285-.181,2.029,2.029,0,0,1,.48.089,3.554,3.554,0,0,1,.26.42.236.236,0,0,1-.055.216.711.711,0,0,1-.968-.2A.407.407,0,0,1,755.561-151.917Zm-2.517-2.207a2.268,2.268,0,0,1,1.466.047c.112.035.218.254.23.4a3.123,3.123,0,0,1-.115.7c-.572-.151-1.013-.265-1.453-.387a.37.37,0,0,1-.205-.127.61.61,0,0,1-.111-.342A.394.394,0,0,1,753.044-154.125Zm-6.565-4.812a.532.532,0,0,1-.047-.456.457.457,0,0,1,.424-.127c.685.311,1.355.656,2.024,1,.057.03.071.145.134.288-.161.1-.325.272-.5.281A2.092,2.092,0,0,1,746.479-158.937Zm4.874,3.313a1.1,1.1,0,0,1-.1.07,2,2,0,0,1-1.693-.092,1.655,1.655,0,0,1-1.174-1.325,1.922,1.922,0,0,1,.462-.006,12.9,12.9,0,0,0,2.26.694c.1.013.2.133.289.216A.332.332,0,0,1,751.353-155.624Z" transform="translate(0.796 1.009)" fill="#ff62cd"/>
    <path id="Path_10766" data-name="Path 10766" d="M760.287-143.1a.9.9,0,0,0,.067.243,3.221,3.221,0,0,0,2.315,1.794,6.3,6.3,0,0,0,2.392.112,11.987,11.987,0,0,0,6.32-2.687c.8-.689,1.61-1.356,2.42-2.03a.4.4,0,0,1,.219-.114.8.8,0,0,1,.464.078c.106.086.205.349.151.428a4.942,4.942,0,0,0-.53,1.64,1.99,1.99,0,0,0,.374.016,9.294,9.294,0,0,0,4.365-1.9,1.783,1.783,0,0,0,.95-1.691c-.546-.986-1.1-2.029-1.693-3.05a3.426,3.426,0,0,0-2.875-1.8,5.442,5.442,0,0,0-2.61.367c-1.155.513-2.271,1.113-3.4,1.691-.523.269-1.018.591-1.543.855a4.288,4.288,0,0,0-1.53,1.092c-.21.26-.474.476-.817.815.077.271.127.514.216.743a7.582,7.582,0,0,1,.4.927,1.5,1.5,0,0,1-.02.856,3.554,3.554,0,0,1-4.633,1.891c-.306-.173-.63-.315-.954-.476C760.306-143.184,760.281-143.141,760.287-143.1Z" transform="translate(5.622 5.066)" fill="#ff62cd"/>
    <path id="Path_10767" data-name="Path 10767" d="M778.289-146.2a12.325,12.325,0,0,1-3.649,2.092,12.844,12.844,0,0,1-4.175.618,2.466,2.466,0,0,0-.622,2.412,2.557,2.557,0,0,0,1.848,1.576c.08.025.165.036.246.06a9.236,9.236,0,0,0,3.877.258,7.351,7.351,0,0,0,2.059-.566,5.351,5.351,0,0,0,2.718-2.349,18.794,18.794,0,0,0-1.74-3.387A8.241,8.241,0,0,0,778.289-146.2Z" transform="translate(7.503 6.238)" fill="#ff62cd"/>
    <path id="Path_10768" data-name="Path 10768" d="M771.476-110.365l-3.314.141c.191,1.934.046,3.813.283,5.693a9.784,9.784,0,0,0,3.61-.273c-.037-1.4-.05-2.778-.126-4.157A2,2,0,0,0,771.476-110.365Z" transform="translate(7.19 13.371)" fill="#ff62cd"/>
    <path id="Path_10769" data-name="Path 10769" d="M767.336-110.417l-2.166-.754a1.859,1.859,0,0,0-.46,1.325,16.857,16.857,0,0,0,.549,4,.854.854,0,0,0,.321.516,5.448,5.448,0,0,0,2.494.761c-.064-1.558-.122-3.032-.186-4.506A1.739,1.739,0,0,0,767.336-110.417Z" transform="translate(6.502 13.21)" fill="#ff62cd"/>
    <path id="Path_10770" data-name="Path 10770" d="M774.729-110.66a1.061,1.061,0,0,0-.918-.818l-1.815.922c-.02.144-.061.234-.04.3a9.51,9.51,0,0,1,.32,3.242c-.02.46-.01.924.012,1.385a5.942,5.942,0,0,0,.131.739,12.961,12.961,0,0,0,2.968-1.265,33.485,33.485,0,0,0-.42-3.4A8.542,8.542,0,0,0,774.729-110.66Z" transform="translate(7.944 13.149)" fill="#ff62cd"/>
    <path id="Path_10771" data-name="Path 10771" d="M777.665-106.71a1.055,1.055,0,0,0,.934.67,3.247,3.247,0,0,0,.174-.415,11.991,11.991,0,0,0-.531-7.428,4.9,4.9,0,0,0-.549-.989c-.1-.143-.307-.212-.555-.374-.114.608-.221,1.1-.294,1.592a16.749,16.749,0,0,0,.384,5.765A5.28,5.28,0,0,0,777.665-106.71Z" transform="translate(8.894 12.399)" fill="#ff62cd"/>
    <path id="Path_10772" data-name="Path 10772" d="M762.607-112.917a3.483,3.483,0,0,0-.168.649,13.2,13.2,0,0,0,.775,4.944,1.963,1.963,0,0,0,1.181,1.139c-.1-1.79-.7-3.513.284-5.245A15.515,15.515,0,0,0,762.607-112.917Z" transform="translate(6.048 12.863)" fill="#ff62cd"/>
    <path id="Path_10773" data-name="Path 10773" d="M755.054-148.2a7.8,7.8,0,0,0,.295.741,1.147,1.147,0,0,0,1.432.711,4.032,4.032,0,0,0,1.8-.838,1.373,1.373,0,0,0,.572-1.65c-.072-.193-.127-.393-.188-.588A9.323,9.323,0,0,0,755.054-148.2Z" transform="translate(4.58 5.517)" fill="#ff62cd"/>
    <path id="Path_10774" data-name="Path 10774" d="M764.368-145.424a.953.953,0,0,0,.174-1.255c-.146-.243-.267-.5-.434-.819a21.48,21.48,0,0,0-3.329,1.608,3.255,3.255,0,0,0,.353.62A2.178,2.178,0,0,0,764.368-145.424Z" transform="translate(5.72 5.979)" fill="#ff62cd"/>
    <path id="Path_10775" data-name="Path 10775" d="M776.085-113.532c.013-.119.017-.239.028-.4a1.131,1.131,0,0,0-.571,1.048,12.311,12.311,0,0,0,.771,6.1,3.641,3.641,0,0,0,.461.9,3.466,3.466,0,0,0,.829.753c.216.14.494.114.59-.295a4.347,4.347,0,0,1-1.741-3.186A18.646,18.646,0,0,1,776.085-113.532Z" transform="translate(8.64 12.66)" fill="#ff62cd"/>
    <path id="Path_10776" data-name="Path 10776" d="M760.481-157.257a2.514,2.514,0,0,0,.028-1.314,16.351,16.351,0,0,0-3.525-.338C757.514-157.129,758.706-156.6,760.481-157.257Z" transform="translate(4.964 3.701)" fill="#ff62cd"/>
    <path id="Path_10777" data-name="Path 10777" d="M779.66-143.284a8.344,8.344,0,0,0,.674,1.359,2.691,2.691,0,0,0,.121-1.887,5.13,5.13,0,0,0-1.362-2.377,3.6,3.6,0,0,0-1.229-1.058.331.331,0,0,0-.493.252c.291.38.614.763.895,1.175.259.38.484.787.705,1.192C779.212-144.187,779.426-143.73,779.66-143.284Z" transform="translate(9.023 6.022)" fill="#ff62cd"/>
    <path id="Path_10778" data-name="Path 10778" d="M761.333-111.122c.032.137,0,.36.3.342.006-.446.014-.895.02-1.342a2.066,2.066,0,0,1,.635-1.3c-.385-.625-.733-1.188-1.2-1.954A12.551,12.551,0,0,0,761.333-111.122Z" transform="translate(5.767 12.373)" fill="#ff62cd"/>
  </g>
</svg>
